<svg width="25" height="22" viewBox="0 0 25 22" fill="none" xmlns="http://www.w3.org/2000/svg">
<path d="M10.3971 0.729182L1.14152 9.72438C0.44581 10.4012 0.44581 11.5988 1.14152 12.278L10.3971 21.2732C11.1199 21.974 12.2876 21.9716 13.0054 21.266C13.7233 20.5604 13.7233 19.4228 13.0005 18.7196L6.91123 12.7988L22.5339 12.7988C23.5541 12.7988 24.3777 11.9924 24.3777 10.9988C24.3777 10.0052 23.5541 9.19878 22.5339 9.19878L6.91123 9.19878L13.0005 3.28038C13.3619 2.92758 13.5414 2.46678 13.5414 2.00358C13.5414 1.54518 13.3619 1.08438 13.0054 0.733981C12.2876 0.0307814 11.1199 0.0283818 10.3971 0.729182Z" fill="white"/>
</svg>
