<svg width="26" height="26" viewBox="0 0 26 26" fill="none" xmlns="http://www.w3.org/2000/svg">
<g clip-path="url(#clip0_1_4620)">
<path d="M26 13C26 5.8203 20.1797 0 13 0C5.8203 0 0 5.8203 0 13C0 20.1797 5.8203 26 13 26C20.1797 26 26 20.1797 26 13Z" fill="white"/>
<path opacity="0.4" d="M6.33325 13.6467V9.65999C6.33325 7.81999 7.82659 6.33333 9.66659 6.33333H16.3332C18.1732 6.33333 19.6665 7.81999 19.6665 9.65999V14.3133C19.6665 16.1467 18.1732 17.6333 16.3332 17.6333H15.3332C15.1265 17.6333 14.9265 17.7333 14.7999 17.9L13.7999 19.2267C13.3599 19.8133 12.6399 19.8133 12.1999 19.2267L11.1999 17.9C11.0932 17.7533 10.8532 17.6333 10.6665 17.6333H9.66659C7.82659 17.6333 6.33325 16.1467 6.33325 14.3133V13.6467Z" fill="#6C5DD3"/>
<path d="M16.3335 10.8333H9.66675C9.39341 10.8333 9.16675 10.6067 9.16675 10.3333C9.16675 10.06 9.39341 9.83333 9.66675 9.83333H16.3335C16.6068 9.83333 16.8335 10.06 16.8335 10.3333C16.8335 10.6067 16.6068 10.8333 16.3335 10.8333Z" fill="#6C5DD3"/>
<path d="M13.6668 14.1667H9.66675C9.39341 14.1667 9.16675 13.94 9.16675 13.6667C9.16675 13.3933 9.39341 13.1667 9.66675 13.1667H13.6668C13.9401 13.1667 14.1668 13.3933 14.1668 13.6667C14.1668 13.94 13.9401 14.1667 13.6668 14.1667Z" fill="#6C5DD3"/>
</g>
<defs>
<clipPath id="clip0_1_4620">
<rect width="26" height="26" fill="white"/>
</clipPath>
</defs>
</svg>
