<svg width="27" height="27" viewBox="0 0 27 27" fill="none" xmlns="http://www.w3.org/2000/svg">
<path d="M8.58229 2.20068H17.8248C21.3458 2.20068 24.2065 5.06146 24.2065 8.58241V17.8249C24.2065 19.5175 23.5342 21.1407 22.3374 22.3375C21.1406 23.5343 19.5173 24.2067 17.8248 24.2067H8.58229C5.06134 24.2067 2.20056 21.3459 2.20056 17.8249V8.58241C2.20056 6.88987 2.87292 5.26666 4.06973 4.06985C5.26653 2.87304 6.88975 2.20068 8.58229 2.20068ZM8.36223 4.40128C7.31169 4.40128 6.30418 4.81861 5.56133 5.56145C4.81848 6.3043 4.40116 7.31181 4.40116 8.36235V18.045C4.40116 20.2346 6.17264 22.0061 8.36223 22.0061H18.0449C19.0954 22.0061 20.1029 21.5887 20.8458 20.8459C21.5886 20.103 22.0059 19.0955 22.0059 18.045V8.36235C22.0059 6.17276 20.2345 4.40128 18.0449 4.40128H8.36223ZM18.9801 6.05173C19.3449 6.05173 19.6947 6.19663 19.9526 6.45457C20.2106 6.7125 20.3555 7.06233 20.3555 7.4271C20.3555 7.79187 20.2106 8.1417 19.9526 8.39964C19.6947 8.65757 19.3449 8.80247 18.9801 8.80247C18.6153 8.80247 18.2655 8.65757 18.0076 8.39964C17.7496 8.1417 17.6047 7.79187 17.6047 7.4271C17.6047 7.06233 17.7496 6.7125 18.0076 6.45457C18.2655 6.19663 18.6153 6.05173 18.9801 6.05173ZM13.2035 7.70218C14.6626 7.70218 16.062 8.2818 17.0937 9.31353C18.1254 10.3453 18.705 11.7446 18.705 13.2037C18.705 14.6628 18.1254 16.0621 17.0937 17.0938C16.062 18.1255 14.6626 18.7052 13.2035 18.7052C11.7445 18.7052 10.3451 18.1255 9.3134 17.0938C8.28167 16.0621 7.70205 14.6628 7.70205 13.2037C7.70205 11.7446 8.28167 10.3453 9.3134 9.31353C10.3451 8.2818 11.7445 7.70218 13.2035 7.70218ZM13.2035 9.90277C12.3281 9.90277 11.4885 10.2505 10.8695 10.8696C10.2504 11.4886 9.90265 12.3282 9.90265 13.2037C9.90265 14.0791 10.2504 14.9187 10.8695 15.5378C11.4885 16.1568 12.3281 16.5046 13.2035 16.5046C14.079 16.5046 14.9186 16.1568 15.5376 15.5378C16.1567 14.9187 16.5044 14.0791 16.5044 13.2037C16.5044 12.3282 16.1567 11.4886 15.5376 10.8696C14.9186 10.2505 14.079 9.90277 13.2035 9.90277Z" fill="white"/>
</svg>
