<svg width="28" height="27" viewBox="0 0 28 27" fill="none" xmlns="http://www.w3.org/2000/svg">
<path d="M8.27363 5.5015C8.27334 6.08514 8.04121 6.64475 7.62831 7.05724C7.21541 7.46972 6.65557 7.70129 6.07193 7.701C5.4883 7.70071 4.92868 7.46858 4.5162 7.05568C4.10371 6.64278 3.87214 6.08294 3.87244 5.4993C3.87273 4.91567 4.10486 4.35605 4.51775 3.94357C4.93065 3.53108 5.4905 3.29951 6.07413 3.2998C6.65777 3.3001 7.21738 3.53222 7.62987 3.94512C8.04235 4.35802 8.27392 4.91787 8.27363 5.5015ZM8.33965 9.33054H3.93845V23.1063H8.33965V9.33054ZM15.2935 9.33054H10.9143V23.1063H15.2495V15.8773C15.2495 11.8502 20.4979 11.4761 20.4979 15.8773V23.1063H24.8441V14.3809C24.8441 7.59207 17.076 7.84514 15.2495 11.179L15.2935 9.33054Z" fill="white"/>
</svg>
