<svg width="24" height="24" viewBox="0 0 24 24" fill="none" xmlns="http://www.w3.org/2000/svg">
<rect opacity="0.7" y="-0.000244141" width="24" height="24" rx="4" fill="#1B1D21"/>
<path d="M9 4.99976H6C5.4 4.99976 5 5.39976 5 5.99976V17.9998C5 18.5998 5.4 18.9998 6 18.9998H9C9.6 18.9998 10 18.5998 10 17.9998V5.99976C10 5.39976 9.6 4.99976 9 4.99976Z" fill="white"/>
<path d="M18 4.99976H15C14.4 4.99976 14 5.39976 14 5.99976V17.9998C14 18.5998 14.4 18.9998 15 18.9998H18C18.6 18.9998 19 18.5998 19 17.9998V5.99976C19 5.39976 18.6 4.99976 18 4.99976Z" fill="white"/>
</svg>
