<svg width="27" height="27" viewBox="0 0 27 27" fill="none" xmlns="http://www.w3.org/2000/svg">
<g clip-path="url(#clip0_1_4890)">
<path d="M23.796 9.99224C18.8753 6.60648 12.8262 3.18626 8.35306 1.07897C5.82553 -0.243596 2.13106 2.03655 1.93387 5.23981C1.52123 10.8547 1.52123 16.4923 1.93387 22.1072C2.13106 25.3105 5.82553 27.5907 8.35306 26.2686C12.8262 24.1613 18.8753 20.7411 23.796 17.3553C25.1384 16.4256 25.7274 15.0458 25.735 13.674C25.7274 12.3023 25.1389 10.9224 23.796 9.99275V9.99224Z" fill="white"/>
<path d="M1.93387 5.23981C1.55499 10.3991 1.5245 15.5782 1.84262 20.7416C2.66232 20.888 3.49337 20.9617 4.32605 20.9616C12.0714 20.9616 18.3501 14.6828 18.3501 6.93751C18.3501 6.78796 18.3476 6.63893 18.343 6.4904C14.8427 4.37804 11.2643 2.4502 8.35306 1.07897C5.82553 -0.243596 2.13106 2.03655 1.93387 5.23981Z" fill="white"/>
</g>
<defs>
<clipPath id="clip0_1_4890">
<rect width="25.9546" height="25.9546" fill="white" transform="translate(0.696289 0.696289)"/>
</clipPath>
</defs>
</svg>
