<svg width="24" height="24" viewBox="0 0 24 24" fill="none" xmlns="http://www.w3.org/2000/svg">
<rect opacity="0.7" y="-0.000244141" width="24" height="24" rx="4" fill="#1B1D21"/>
<path fill-rule="evenodd" clip-rule="evenodd" d="M17.905 7.81476C17.214 8.96576 17.832 10.4578 19.135 10.7838C19.74 10.9348 20 11.3298 20 11.7808V12.2188C20 12.6688 19.742 13.0648 19.135 13.2158C17.832 13.5408 17.214 15.0328 17.905 16.1848C18.226 16.7208 18.129 17.1828 17.811 17.5008L17.501 17.8108C17.182 18.1298 16.72 18.2258 16.185 17.9048C15.034 17.2138 13.542 17.8318 13.216 19.1348C13.064 19.7418 12.669 19.9998 12.219 19.9998H11.781C11.331 19.9998 10.935 19.7418 10.784 19.1348C10.459 17.8318 8.967 17.2138 7.815 17.9048C7.281 18.2258 6.818 18.1298 6.499 17.8108L6.189 17.5008C5.87 17.1828 5.773 16.7208 6.095 16.1848C6.786 15.0338 6.168 13.5418 4.865 13.2158C4.258 13.0638 4 12.6688 4 12.2188V11.7808C4 11.3298 4.26 10.9348 4.865 10.7838C6.168 10.4588 6.786 8.96676 6.095 7.81476C5.773 7.27876 5.87 6.81576 6.188 6.49776L6.498 6.18776C6.816 5.86976 7.279 5.77276 7.815 6.09476C8.966 6.78576 10.458 6.16776 10.784 4.86476C10.936 4.25776 11.331 3.99976 11.781 3.99976H12.219C12.669 3.99976 13.065 4.25776 13.216 4.86476C13.541 6.16776 15.033 6.78576 16.185 6.09476C16.721 5.77376 17.183 5.87076 17.501 6.18876L17.811 6.49876C18.13 6.81676 18.227 7.27876 17.905 7.81476ZM9 11.9998C9 13.6568 10.343 14.9998 12 14.9998C13.657 14.9998 15 13.6568 15 11.9998C15 10.3428 13.657 8.99976 12 8.99976C10.343 8.99976 9 10.3428 9 11.9998Z" fill="white"/>
</svg>
