<svg width="24" height="24" viewBox="0 0 24 24" fill="none" xmlns="http://www.w3.org/2000/svg">
<rect opacity="0.7" y="-0.000244141" width="24" height="24" rx="4" fill="#1B1D21"/>
<path d="M16.8 16.1997C16.4 15.7997 16.4 15.1997 16.8 14.7997C18.4 13.1997 18.4 10.6997 16.8 9.09966C16.4 8.69966 16.4 8.09966 16.8 7.69966C17.2 7.29966 17.8 7.29966 18.2 7.69966C20.5 9.99966 20.5 13.7997 18.2 16.1997C17.9 16.5997 17.2 16.5997 16.8 16.1997Z" fill="white"/>
<path d="M15 4.9997C15 4.1997 14.1 3.6997 13.4 4.1997L7.7 7.9997H5C4.4 7.9997 4 8.3997 4 8.9997V14.9997C4 15.5997 4.4 15.9997 5 15.9997H7.7L13.4 19.7997C14.1 20.1997 15 19.7997 15 18.9997V4.9997Z" fill="white"/>
</svg>
