<svg width="16" height="16" viewBox="0 0 16 16" fill="none" xmlns="http://www.w3.org/2000/svg">
<path d="M12.8 12.1997C12.4 11.7997 12.4 11.1997 12.8 10.7997C14.4 9.19966 14.4 6.69966 12.8 5.09966C12.4 4.69966 12.4 4.09966 12.8 3.69966C13.2 3.29966 13.8 3.29966 14.2 3.69966C16.5 5.99966 16.5 9.79966 14.2 12.1997C13.9 12.5997 13.2 12.5997 12.8 12.1997Z" fill="white"/>
<path d="M11 0.999703C11 0.199703 10.1 -0.300297 9.4 0.199703L3.7 3.9997H1C0.4 3.9997 0 4.3997 0 4.9997V10.9997C0 11.5997 0.4 11.9997 1 11.9997H3.7L9.4 15.7997C10.1 16.1997 11 15.7997 11 14.9997V0.999703Z" fill="white"/>
</svg>
