<svg width="28" height="27" viewBox="0 0 28 27" fill="none" xmlns="http://www.w3.org/2000/svg">
<path d="M24.3977 4.06271L25.1312 4.01243C25.1217 3.86289 25.0699 3.71958 24.9823 3.60046C24.8947 3.48134 24.7753 3.39169 24.6389 3.34273C24.5025 3.29378 24.3552 3.2877 24.2155 3.32526C24.0758 3.36282 23.9498 3.44234 23.8534 3.55387L24.3977 4.06271ZM23.6671 8.57067C23.6671 8.36865 23.5898 8.1749 23.4523 8.03204C23.3147 7.88919 23.1281 7.80893 22.9336 7.80893C22.7391 7.80893 22.5525 7.88919 22.4149 8.03204C22.2774 8.1749 22.2001 8.36865 22.2001 8.57067H23.6671ZM3.89164 20.8209V20.0592C3.73414 20.059 3.58076 20.1114 3.45419 20.2088C3.32762 20.3061 3.23458 20.4432 3.18884 20.5997C3.1431 20.7562 3.14708 20.9239 3.20021 21.0779C3.25333 21.2318 3.35276 21.364 3.4838 21.4547L3.89164 20.8209ZM5.35573 4.06271L6.04376 3.7961C5.99376 3.65702 5.90572 3.53614 5.79045 3.44833C5.67518 3.36052 5.53772 3.30959 5.39496 3.30183C5.2522 3.29406 5.11036 3.32978 4.98689 3.4046C4.86342 3.47942 4.76369 3.59008 4.69997 3.72297L5.35573 4.06271ZM11.215 17.774L11.7343 18.3118C11.8225 18.22 11.8865 18.1064 11.9206 17.9817C11.9546 17.857 11.9574 17.7253 11.9288 17.5992C11.9001 17.473 11.841 17.3566 11.7569 17.2608C11.6728 17.165 11.5666 17.0931 11.4483 17.0519L11.215 17.774ZM21.8128 5.54505L21.27 6.05694L21.5341 6.36011L21.9228 6.29917L21.8128 5.54505ZM23.6671 4.11298C23.7419 5.29825 23.6715 6.01733 23.4867 6.55968C23.3077 7.08528 22.9937 7.51795 22.426 8.08316L23.4412 9.18311C24.0837 8.54325 24.5796 7.91558 24.8701 7.06853C25.1532 6.23671 25.2119 5.27387 25.1312 4.01243L23.6671 4.11298ZM23.6671 9.67976V8.57067H22.2001V9.68129H23.6671V9.67976ZM13.4126 8.6956V10.1566H14.8796V8.6956H13.4126ZM13.4126 10.1566V10.9183H14.8796V10.1566H13.4126ZM18.5985 3.30097C17.9167 3.30137 17.2417 3.44122 16.612 3.71255C15.9822 3.98387 15.4101 4.38135 14.9283 4.88228C14.4464 5.38322 14.0643 5.97781 13.8038 6.6321C13.5432 7.28639 13.4093 7.98756 13.4097 8.6956H14.8767C14.8763 8.1875 14.9723 7.68431 15.1593 7.21475C15.3462 6.7452 15.6203 6.31849 15.9661 5.959C16.3119 5.59951 16.7224 5.31429 17.1744 5.11962C17.6263 4.92495 18.1107 4.82465 18.6 4.82445V3.30097H18.5985ZM22.1986 9.67976C22.2001 16.2551 17.0758 21.5827 10.7573 21.5827V23.1061C17.887 23.1061 23.6671 17.0945 23.6671 9.67976H22.1986ZM4.66916 4.32932C5.46722 6.5414 8.45995 10.9183 14.1461 10.9183V9.39487C9.28148 9.39487 6.70979 5.64712 6.04229 3.7961L4.66916 4.32932ZM4.69997 3.72297C3.16399 6.91618 2.9278 10.0149 4.04421 12.6536C5.15768 15.2846 7.55333 17.3078 10.9832 18.4961L11.4483 17.0519C8.28684 15.955 6.28729 14.1694 5.38653 12.0396C4.48872 9.91742 4.61928 7.30162 6.01295 4.40244L4.69997 3.72297ZM10.6957 17.2362C9.81254 18.1549 7.15723 20.0592 3.89164 20.0592V21.5827C7.65602 21.5827 10.6649 19.4254 11.7343 18.3118L10.6957 17.2362ZM22.3571 5.03469C21.8828 4.48845 21.3032 4.05184 20.656 3.75316C20.0087 3.45449 19.3083 3.30043 18.6 3.30097V4.82445C19.6577 4.82445 20.6098 5.29825 21.27 6.05694L22.3571 5.03469ZM21.9228 6.29917C23.0914 6.10091 24.1585 5.49084 24.9449 4.57155L23.8534 3.55387C23.2941 4.21009 22.535 4.64727 21.7028 4.79245L21.9228 6.29917ZM3.4838 21.4547C5.89119 23.1214 8.41447 23.1061 10.7573 23.1061V21.5827C8.36606 21.5827 6.28582 21.5659 4.29947 20.1872L3.4838 21.4547Z" fill="white"/>
</svg>
