<svg width="27" height="27" viewBox="0 0 27 27" fill="none" xmlns="http://www.w3.org/2000/svg">
<path d="M21.2797 5.40262C20.2709 4.38366 19.0694 3.57576 17.7451 3.02603C16.4208 2.4763 15.0004 2.19575 13.5666 2.20075C7.55894 2.20075 2.66261 7.09708 2.66261 13.1047C2.66261 15.0302 3.16875 16.9007 4.115 18.5512L2.57458 24.2067L8.35115 22.6883C9.94658 23.5575 11.7401 24.0197 13.5666 24.0197C19.5742 24.0197 24.4705 19.1233 24.4705 13.1157C24.4705 10.1999 23.3372 7.46018 21.2797 5.40262ZM13.5666 22.1712C11.9381 22.1712 10.3427 21.731 8.94531 20.9058L8.61522 20.7078L5.18229 21.61L6.09554 18.2651L5.87548 17.924C4.97076 16.4793 4.49036 14.8093 4.4891 13.1047C4.4891 8.10935 8.56021 4.03825 13.5556 4.03825C15.9762 4.03825 18.2538 4.9845 19.9593 6.70097C20.8038 7.54156 21.473 8.5414 21.9282 9.64254C22.3834 10.7437 22.6155 11.9242 22.611 13.1157C22.633 18.1111 18.5619 22.1712 13.5666 22.1712ZM18.5399 15.3933C18.2648 15.2613 16.9225 14.6011 16.6804 14.5021C16.4273 14.4141 16.2513 14.3701 16.0642 14.6341C15.8772 14.9092 15.3601 15.5254 15.206 15.7014C15.052 15.8885 14.8869 15.9105 14.6118 15.7674C14.3368 15.6354 13.4565 15.3383 12.4223 14.4141C11.608 13.6879 11.0689 12.7966 10.9038 12.5215C10.7498 12.2465 10.8818 12.1034 11.0249 11.9604C11.1459 11.8394 11.3 11.6413 11.432 11.4873C11.564 11.3332 11.619 11.2122 11.7071 11.0361C11.7951 10.8491 11.7511 10.6951 11.6851 10.563C11.619 10.431 11.0689 9.08862 10.8488 8.53847C10.6288 8.01033 10.3977 8.07634 10.2327 8.06534H9.70452C9.51747 8.06534 9.23139 8.13136 8.97832 8.40643C8.73626 8.68151 8.03206 9.34169 8.03206 10.6841C8.03206 12.0264 9.01133 13.3248 9.14337 13.5008C9.2754 13.6879 11.0689 16.4386 13.7976 17.6159C14.4468 17.902 14.9529 18.0671 15.349 18.1881C15.9982 18.3971 16.5924 18.3641 17.0655 18.2981C17.5937 18.2211 18.683 17.6379 18.903 16.9998C19.1341 16.3616 19.1341 15.8224 19.0571 15.7014C18.98 15.5804 18.815 15.5254 18.5399 15.3933Z" fill="white"/>
</svg>
