<svg width="55" height="34" viewBox="0 0 55 34" fill="none" xmlns="http://www.w3.org/2000/svg">
<g clip-path="url(#clip0_1_4835)">
<path d="M54.5798 24.343L48.1316 6.1516C47.7748 5.1432 47.112 4.2698 46.2345 3.652C45.357 3.0342 44.3083 2.70247 43.2331 2.70264H11.767C10.6917 2.70247 9.64298 3.0342 8.76552 3.652C7.88806 4.2698 7.22519 5.1432 6.86844 6.1516L0.420257 24.343C0.0328226 25.4361 -0.0852925 26.6056 0.0758194 27.7535C0.236931 28.9014 0.672572 29.9941 1.3462 30.94C2.01983 31.8859 2.9118 32.6575 3.94731 33.1899C4.98281 33.7223 6.13164 34.0002 7.29745 34C8.4076 33.9999 9.50307 33.7478 10.5003 33.2628C11.4976 32.7779 12.3702 32.0729 13.0518 31.2017L21.1394 20.8657H33.8606L41.9592 31.2017C42.6407 32.0729 43.5134 32.7779 44.5107 33.2628C45.5079 33.7478 46.6034 33.9999 47.7135 34C48.8784 33.9984 50.0259 33.7193 51.06 33.1862C52.0941 32.653 52.9846 31.8812 53.657 30.9356C54.3294 29.9899 54.764 28.8978 54.9246 27.7508C55.0851 26.6038 54.9669 25.4352 54.5798 24.343Z" fill="#56BDE9"/>
<path d="M48.1316 6.1516C47.7749 5.14321 47.112 4.2698 46.2345 3.652C45.3571 3.0342 44.3083 2.70247 43.2331 2.70264H11.767C10.6918 2.70247 9.64302 3.0342 8.76556 3.652C7.8881 4.2698 7.22523 5.14321 6.86848 6.1516C6.73693 6.52168 6.68249 6.9145 6.70845 7.30617C6.73441 7.69783 6.84024 8.08015 7.01951 8.42987C8.81743 11.9453 11.5 14.9382 14.8063 17.1174C18.1125 19.2966 21.9299 20.5879 25.8869 20.8657H29.111C33.068 20.5879 36.8854 19.2966 40.1917 17.1174C43.4979 14.9382 46.1805 11.9453 47.9784 8.42987C48.158 8.0803 48.2642 7.69805 48.2906 7.30639C48.3169 6.91473 48.2628 6.52183 48.1316 6.1516Z" fill="#56BDE9"/>
<path d="M54.5798 24.343L48.1316 6.1516C47.7748 5.1432 47.112 4.2698 46.2345 3.652C45.357 3.0342 44.3083 2.70247 43.2331 2.70264H11.767C10.6917 2.70247 9.64298 3.0342 8.76552 3.652C7.88806 4.2698 7.22519 5.1432 6.86844 6.1516L0.420257 24.343C0.0328226 25.4361 -0.0852925 26.6056 0.0758194 27.7535C0.236931 28.9014 0.672572 29.9941 1.3462 30.94C2.01983 31.8859 2.9118 32.6575 3.94731 33.1899C4.98281 33.7223 6.13164 34.0002 7.29745 34C8.4076 33.9999 9.50307 33.7478 10.5003 33.2628C11.4976 32.7779 12.3702 32.0729 13.0518 31.2017L17.2324 25.8575C18.4484 24.3029 20.0055 23.0451 21.785 22.18C23.5644 21.3149 25.5192 20.8653 27.5 20.8657C29.4809 20.8653 31.4356 21.3149 33.2151 22.18C34.9945 23.0451 36.5517 24.3029 37.7676 25.8575L41.9482 31.2017C42.6298 32.0729 43.5025 32.7779 44.4997 33.2628C45.4969 33.7478 46.5924 33.9999 47.7026 34C48.8684 34.0002 50.0172 33.7223 51.0527 33.1899C52.0882 32.6575 52.9802 31.8859 53.6538 30.94C54.3274 29.9941 54.7631 28.9014 54.9242 27.7535C55.0853 26.6056 54.9672 25.4361 54.5798 24.343Z" fill="url(#paint0_linear_1_4835)"/>
<path d="M54.5797 24.343L48.1315 6.1516C47.7756 5.14268 47.1129 4.26873 46.2353 3.6508C45.3576 3.03286 44.3084 2.70152 43.233 2.70264H11.7669C10.6917 2.70248 9.6429 3.0342 8.76544 3.652C7.88798 4.2698 7.22511 5.14321 6.86837 6.1516L0.420181 24.343C0.0210034 25.459 -0.0951545 26.6557 0.0819964 27.827C0.259147 28.9983 0.724139 30.1081 1.43578 31.0581L9.13158 18.3285C9.40862 17.8698 9.77648 17.4718 10.2128 17.1586C10.6492 16.8455 11.145 16.6237 11.6702 16.5067C12.1953 16.3897 12.7389 16.3799 13.268 16.478C13.7971 16.5761 14.3006 16.78 14.748 17.0773C18.0634 19.2875 21.9043 20.5938 25.8868 20.8657H29.1109C33.1709 20.5871 37.0822 19.2348 40.4401 16.9489C40.9136 16.6219 41.4519 16.3992 42.019 16.2957C42.586 16.1921 43.1688 16.2102 43.7283 16.3486C44.2878 16.4871 44.8111 16.7427 45.2632 17.0984C45.7153 17.4541 46.0857 17.9017 46.3498 18.4112L53.1001 31.613C53.9855 30.6478 54.5909 29.4618 54.8514 28.1814C55.112 26.9011 55.0181 25.5744 54.5797 24.343Z" fill="url(#paint1_linear_1_4835)"/>
<path opacity="0.2" d="M24.5407 14.2548C26.6358 9.22628 24.2338 3.46136 19.1758 1.37848C14.1177 -0.704396 8.31886 1.68351 6.22373 6.71203C4.12861 11.7405 6.53056 17.5055 11.5886 19.5883C16.6467 21.6712 22.4455 19.2833 24.5407 14.2548Z" fill="#F7D2D1"/>
<path opacity="0.2" d="M49.3529 12.3467C50.3882 7.00205 46.8693 1.83504 41.4932 0.805822C36.1172 -0.223391 30.9198 3.27494 29.8845 8.61957C28.8493 13.9642 32.3682 19.1312 37.7442 20.1604C43.1203 21.1896 48.3177 17.6913 49.3529 12.3467Z" fill="#F7D2D1"/>
<path d="M15.3828 20.9658C13.297 20.9658 11.258 20.3509 9.52372 19.1988C7.78945 18.0467 6.4378 16.4092 5.63969 14.4934C4.84158 12.5776 4.63287 10.4695 5.03995 8.43571C5.44704 6.40197 6.45163 4.53391 7.92667 3.06778C9.40172 1.60166 11.281 0.60333 13.3268 0.19905C15.3726 -0.205231 17.493 0.00269731 19.4199 0.796538C21.3468 1.59038 22.9937 2.93447 24.1522 4.65884C25.3107 6.3832 25.9288 8.41039 25.9284 10.484C25.9249 13.2633 24.8127 15.9277 22.8357 17.8927C20.8587 19.8577 18.1784 20.9629 15.3828 20.9658ZM15.3828 1.25777C13.5473 1.25777 11.753 1.79888 10.2268 2.81267C8.70064 3.82647 7.51114 5.26741 6.80872 6.95328C6.1063 8.63916 5.92252 10.4942 6.28061 12.284C6.6387 14.0737 7.52258 15.7176 8.82048 17.008C10.1184 18.2983 11.772 19.177 13.5722 19.533C15.3725 19.889 17.2385 19.7063 18.9343 19.0079C20.63 18.3096 22.0795 17.1271 23.0992 15.6098C24.119 14.0926 24.6633 12.3088 24.6633 10.484C24.6604 8.03795 23.6817 5.69289 21.9419 3.96326C20.2021 2.23362 17.8432 1.26065 15.3828 1.25777Z" fill="#D2CBFF"/>
<path d="M39.6171 20.9658C37.5313 20.9658 35.4924 20.3509 33.7581 19.1988C32.0238 18.0467 30.6722 16.4092 29.8741 14.4934C29.076 12.5776 28.8672 10.4695 29.2743 8.43571C29.6814 6.40197 30.686 4.53391 32.1611 3.06778C33.6361 1.60166 35.5153 0.60333 37.5611 0.19905C39.6069 -0.205231 41.7274 0.00269731 43.6543 0.796538C45.5812 1.59038 47.2281 2.93447 48.3866 4.65884C49.5451 6.3832 50.1632 8.41039 50.1628 10.484C50.1593 13.2633 49.047 15.9277 47.07 17.8927C45.0931 19.8577 42.4127 20.9629 39.6171 20.9658ZM39.6171 1.25777C37.7816 1.25777 35.9874 1.79888 34.4612 2.81267C32.935 3.82647 31.7455 5.26741 31.0431 6.95328C30.3407 8.63916 30.1569 10.4942 30.515 12.284C30.8731 14.0737 31.757 15.7176 33.0549 17.008C34.3528 18.2983 36.0064 19.177 37.8066 19.533C39.6068 19.889 41.4728 19.7063 43.1686 19.0079C44.8644 18.3096 46.3138 17.1271 47.3336 15.6098C48.3533 14.0926 48.8976 12.3088 48.8976 10.484C48.8947 8.03795 47.916 5.69289 46.1762 3.96326C44.4364 2.23362 42.0776 1.26065 39.6171 1.25777Z" fill="#D2CBFF"/>
<path d="M19.4299 8.79757H17.0725V6.45837C17.0725 6.01111 16.8938 5.58217 16.5757 5.26591C16.2576 4.94965 15.8261 4.77197 15.3762 4.77197C14.9263 4.77197 14.4949 4.94965 14.1767 5.26591C13.8586 5.58217 13.6799 6.01111 13.6799 6.45837V8.79757H11.3335C10.8836 8.79757 10.4522 8.97525 10.134 9.29151C9.81593 9.60777 9.63721 10.0367 9.63721 10.484C9.63721 10.9312 9.81593 11.3602 10.134 11.6764C10.4522 11.9927 10.8836 12.1704 11.3335 12.1704H13.6865V14.5074C13.6865 14.9547 13.8652 15.3836 14.1833 15.6999C14.5014 16.0161 14.9329 16.1938 15.3828 16.1938C15.8327 16.1938 16.2641 16.0161 16.5823 15.6999C16.9004 15.3836 17.0791 14.9547 17.0791 14.5074V12.1704H19.4299C19.8798 12.1704 20.3112 11.9927 20.6293 11.6764C20.9475 11.3602 21.1262 10.9312 21.1262 10.484C21.1262 10.0367 20.9475 9.60777 20.6293 9.29151C20.3112 8.97525 19.8798 8.79757 19.4299 8.79757Z" fill="white"/>
<path d="M39.6171 8.27972C40.7135 8.27972 41.6023 7.3961 41.6023 6.30609C41.6023 5.21608 40.7135 4.33246 39.6171 4.33246C38.5207 4.33246 37.6318 5.21608 37.6318 6.30609C37.6318 7.3961 38.5207 8.27972 39.6171 8.27972Z" fill="white"/>
<path d="M41.0211 16.0572C41.7964 15.2864 41.7964 14.0368 41.0211 13.266C40.2459 12.4953 38.9889 12.4953 38.2136 13.2661C37.4383 14.0368 37.4383 15.2864 38.2136 16.0572C38.9889 16.8279 40.2459 16.8279 41.0211 16.0572Z" fill="white"/>
<path d="M45.7824 10.8016C45.9581 9.72565 45.2232 8.71186 44.1409 8.53721C43.0587 8.36256 42.0389 9.09319 41.8633 10.1691C41.6876 11.245 42.4225 12.2588 43.5048 12.4335C44.587 12.6081 45.6068 11.8775 45.7824 10.8016Z" fill="#3F2D95"/>
<path d="M35.4147 12.4576C36.5111 12.4576 37.3999 11.574 37.3999 10.484C37.3999 9.394 36.5111 8.51038 35.4147 8.51038C34.3183 8.51038 33.4294 9.394 33.4294 10.484C33.4294 11.574 34.3183 12.4576 35.4147 12.4576Z" fill="#3F2D95"/>
<path d="M30.0456 7.48764C27.1389 5.79036 25.053 7.41801 25.0311 7.43541L24.2366 6.45839C24.3504 6.367 27.0338 4.26934 30.6869 6.40399L30.0456 7.48764Z" fill="#D2CBFF"/>
<path d="M51.0778 8.58868H49.5303V9.84641H51.0778C51.2455 9.84641 51.4064 9.78016 51.525 9.66222C51.6437 9.54429 51.7103 9.38433 51.7103 9.21755C51.7103 9.05076 51.6437 8.89081 51.525 8.77287C51.4064 8.65494 51.2455 8.58868 51.0778 8.58868Z" fill="#D2CBFF"/>
<path d="M3.92236 8.58868C3.75459 8.58868 3.5937 8.65494 3.47507 8.77287C3.35644 8.89081 3.28979 9.05076 3.28979 9.21755C3.28979 9.38433 3.35644 9.54429 3.47507 9.66222C3.5937 9.78016 3.75459 9.84641 3.92236 9.84641H5.47202V8.58868H3.92236Z" fill="#D2CBFF"/>
<path d="M32.3284 26.0402C29.8223 29.9113 24.3437 29.8548 21.901 25.9554C21.4501 25.2199 20.266 25.8944 20.7278 26.6343C23.7221 31.4084 30.4417 31.4476 33.4994 26.7213C33.9744 25.988 32.799 25.3113 32.3284 26.0402Z" fill="#D2CBFF"/>
</g>
<defs>
<linearGradient id="paint0_linear_1_4835" x1="27.5" y1="2.70264" x2="27.5" y2="34" gradientUnits="userSpaceOnUse">
<stop stop-color="#6052C6"/>
<stop offset="0.11" stop-color="#4839B1"/>
<stop offset="1" stop-color="#6C5DD3"/>
</linearGradient>
<linearGradient id="paint1_linear_1_4835" x1="27.4999" y1="31.6152" x2="27.4999" y2="2.70264" gradientUnits="userSpaceOnUse">
<stop stop-color="#6C5DD3"/>
<stop offset="0.11" stop-color="#7E72D2"/>
<stop offset="1" stop-color="#6C5DD3"/>
</linearGradient>
<clipPath id="clip0_1_4835">
<rect width="55" height="34" fill="white"/>
</clipPath>
</defs>
</svg>
